<svg width="456" height="456" viewBox="0 0 456 456" fill="none" xmlns="http://www.w3.org/2000/svg">
<circle cx="228" cy="228" r="228" fill="#8DDB90" fill-opacity="0.5"/>
<path d="M216.304 120.206C219.7 117.724 223.795 116.386 228 116.386C232.205 116.386 236.3 117.724 239.696 120.206L323.801 181.646C334.873 189.723 329.173 207.25 315.482 207.284H140.507C126.816 207.25 121.127 189.723 132.188 181.646L216.304 120.206ZM239.333 164.732C239.333 161.723 238.139 158.838 236.014 156.71C233.888 154.583 231.006 153.388 228 153.388C224.994 153.388 222.112 154.583 219.986 156.71C217.861 158.838 216.667 161.723 216.667 164.732C216.667 167.74 217.861 170.626 219.986 172.753C222.112 174.881 224.994 176.076 228 176.076C231.006 176.076 233.888 174.881 236.014 172.753C238.139 170.626 239.333 167.74 239.333 164.732ZM219.5 275.338H196.833V218.617H219.5V275.338ZM259.167 275.338H236.5V218.617H259.167V275.338ZM301.667 275.338H276.167V218.617H301.667V275.338ZM304.5 286.682H151.5C144.737 286.682 138.251 289.371 133.469 294.158C128.687 298.944 126 305.437 126 312.206V317.878C126 322.586 129.808 326.386 134.5 326.386H321.5C323.754 326.386 325.916 325.49 327.51 323.894C329.104 322.299 330 320.135 330 317.878V312.206C330 305.437 327.313 298.944 322.531 294.158C317.749 289.371 311.263 286.682 304.5 286.682ZM179.833 275.338H154.333V218.617H179.833V275.338Z" fill="#0E423E"/>
</svg>
