<svg width="456" height="456" viewBox="0 0 456 456" fill="none" xmlns="http://www.w3.org/2000/svg">
<circle cx="228" cy="228" r="228" fill="#8DDB90" fill-opacity="0.5"/>
<path d="M239.917 142.667C273.39 142.667 290.126 142.667 302.148 150.7C307.353 154.178 311.822 158.647 315.3 163.852C323.333 175.874 323.333 192.61 323.333 226.083C323.333 259.556 323.333 276.293 315.3 288.315C311.822 293.52 307.353 297.989 302.148 301.467C291.646 308.484 277.546 309.371 251.833 309.483V309.5L228.895 355.378C228.526 356.115 227.474 356.115 227.105 355.378L204.167 309.5V309.483C178.454 309.371 164.354 308.484 153.852 301.467C148.647 297.989 144.178 293.52 140.7 288.315C132.667 276.293 132.667 259.556 132.667 226.083C132.667 192.61 132.667 175.874 140.7 163.852C144.178 158.647 148.647 154.178 153.852 150.7C165.874 142.667 182.61 142.667 216.083 142.667H239.917Z" fill="#0E423E" fill-opacity="0.2"/>
<path d="M239.917 142.667V137.667V142.667ZM302.148 150.7L304.926 146.543L304.926 146.543L302.148 150.7ZM315.3 163.852L319.457 161.074L319.457 161.074L315.3 163.852ZM323.333 226.083L328.333 226.083L323.333 226.083ZM315.3 288.315L319.457 291.093L319.457 291.093L315.3 288.315ZM302.148 301.467L304.926 305.624L304.926 305.624L302.148 301.467ZM251.833 309.483L251.811 304.483C249.058 304.495 246.833 306.73 246.833 309.483H251.833ZM251.833 309.5L256.305 311.736C256.652 311.042 256.833 310.276 256.833 309.5H251.833ZM228.895 355.378L233.367 357.614L233.367 357.614L228.895 355.378ZM227.105 355.378L222.633 357.614L222.633 357.614L227.105 355.378ZM204.167 309.5H199.167C199.167 310.276 199.348 311.042 199.695 311.736L204.167 309.5ZM204.167 309.483H209.167C209.167 306.73 206.942 304.495 204.189 304.483L204.167 309.483ZM153.852 301.467L151.074 305.624L151.074 305.624L153.852 301.467ZM140.7 288.315L136.543 291.093L136.543 291.093L140.7 288.315ZM132.667 226.083H127.667H132.667ZM140.7 163.852L136.543 161.074L136.543 161.074L140.7 163.852ZM153.852 150.7L151.074 146.543L151.074 146.543L153.852 150.7ZM216.083 142.667L216.083 137.667L216.083 142.667ZM239.917 142.667L239.917 147.667C256.757 147.667 269.011 147.673 278.57 148.645C288.046 149.609 294.318 151.481 299.371 154.858L302.148 150.7L304.926 146.543C297.956 141.886 289.849 139.741 279.583 138.697C269.4 137.661 256.549 137.667 239.917 137.667L239.917 142.667ZM302.148 150.7L299.371 154.858C304.029 157.97 308.03 161.971 311.142 166.629L315.3 163.852L319.457 161.074C315.615 155.323 310.677 150.385 304.926 146.543L302.148 150.7ZM315.3 163.852L311.142 166.629C314.519 171.682 316.391 177.954 317.355 187.43C318.327 196.989 318.333 209.243 318.333 226.083L323.333 226.083L328.333 226.083C328.333 209.451 328.339 196.6 327.303 186.417C326.259 176.151 324.114 168.044 319.457 161.074L315.3 163.852ZM323.333 226.083H318.333C318.333 242.924 318.327 255.178 317.355 264.737C316.391 274.213 314.519 280.485 311.142 285.538L315.3 288.315L319.457 291.093C324.114 284.123 326.259 276.016 327.303 265.749C328.339 255.566 328.333 242.715 328.333 226.083H323.333ZM315.3 288.315L311.142 285.538C308.03 290.196 304.029 294.197 299.371 297.309L302.148 301.467L304.926 305.624C310.677 301.782 315.615 296.844 319.457 291.093L315.3 288.315ZM302.148 301.467L299.371 297.309C294.956 300.259 289.608 302.062 282.01 303.112C274.331 304.173 264.691 304.427 251.811 304.483L251.833 309.483L251.855 314.483C264.687 314.427 274.954 314.182 283.379 313.018C291.885 311.842 298.838 309.692 304.926 305.624L302.148 301.467ZM251.833 309.483H246.833V309.5H251.833H256.833V309.483H251.833ZM251.833 309.5L247.361 307.264L224.422 353.142L228.895 355.378L233.367 357.614L256.305 311.736L251.833 309.5ZM228.895 355.378L224.423 353.142C225.897 350.194 230.103 350.194 231.577 353.142L227.105 355.378L222.633 357.614C224.845 362.036 231.155 362.036 233.367 357.614L228.895 355.378ZM227.105 355.378L231.578 353.142L208.639 307.264L204.167 309.5L199.695 311.736L222.633 357.614L227.105 355.378ZM204.167 309.5H209.167V309.483H204.167H199.167V309.5H204.167ZM204.167 309.483L204.189 304.483C191.309 304.427 181.669 304.173 173.99 303.112C166.392 302.061 161.044 300.259 156.629 297.309L153.852 301.467L151.074 305.624C157.162 309.692 164.115 311.842 172.621 313.018C181.046 314.182 191.313 314.427 204.145 314.483L204.167 309.483ZM153.852 301.467L156.629 297.309C151.971 294.197 147.97 290.196 144.858 285.538L140.7 288.315L136.543 291.093C140.385 296.844 145.323 301.782 151.074 305.624L153.852 301.467ZM140.7 288.315L144.858 285.538C141.481 280.485 139.609 274.213 138.645 264.737C137.673 255.178 137.667 242.924 137.667 226.083H132.667H127.667C127.667 242.715 127.661 255.566 128.697 265.749C129.741 276.016 131.886 284.123 136.543 291.093L140.7 288.315ZM132.667 226.083L137.667 226.083C137.667 209.243 137.673 196.989 138.645 187.43C139.609 177.954 141.481 171.682 144.858 166.629L140.7 163.852L136.543 161.074C131.886 168.044 129.741 176.151 128.697 186.417C127.661 196.6 127.667 209.451 127.667 226.083L132.667 226.083ZM140.7 163.852L144.858 166.629C147.97 161.971 151.971 157.97 156.629 154.858L153.852 150.7L151.074 146.543C145.323 150.385 140.385 155.323 136.543 161.074L140.7 163.852ZM153.852 150.7L156.629 154.858C161.682 151.481 167.954 149.609 177.43 148.645C186.989 147.673 199.243 147.667 216.083 147.667L216.083 142.667L216.083 137.667C199.451 137.667 186.6 137.661 176.417 138.697C166.151 139.741 158.044 141.886 151.074 146.543L153.852 150.7ZM216.083 142.667V147.667H239.917V142.667V137.667H216.083V142.667Z" fill="#0E423E"/>
<circle cx="275.667" cy="226.083" r="11.9167" fill="#0E423E" stroke="#222222" stroke-width="0.2" stroke-linecap="round"/>
<circle cx="228" cy="226.083" r="11.9167" fill="#0E423E" stroke="#222222" stroke-width="0.2" stroke-linecap="round"/>
<circle cx="180.334" cy="226.083" r="11.9167" fill="#0E423E" stroke="#222222" stroke-width="0.2" stroke-linecap="round"/>
</svg>
