<svg width="512" height="512" viewBox="0 0 512 512" fill="none" xmlns="http://www.w3.org/2000/svg">
<path d="M228.335 1.24339C140.325 10.5496 61.2342 67.304 23.7218 148.045C14.6716 167.575 6.93304 192.347 3.2605 213.45C1.81772 222.363 -0.543203 249.102 0.112608 250.019C0.768419 250.675 62.9393 191.43 137.046 119.733C185.314 72.9401 237.516 25.8851 260.732 8.45239C265.585 4.78236 269.52 1.37447 269.52 0.850177C269.52 -0.46055 241.976 -0.198404 228.335 1.24339Z" fill="#DB0000"/>
<path d="M364.35 28.769C365.399 36.2402 363.432 49.8717 359.89 60.3575C352.414 82.2467 324.477 131.923 270.175 220.004C243.287 263.782 230.04 285.934 223.088 299.303C215.481 313.852 217.055 317.129 228.466 310.182C240.402 303.104 259.551 286.851 304.146 246.219C379.171 177.93 391.107 168.755 408.683 165.085C420.75 162.594 436.62 167.051 444.228 175.046C449.081 180.158 450.524 184.614 450.524 194.969C450.524 211.484 446.982 228.262 424.291 320.275C419.832 338.232 415.897 355.926 415.503 359.596C414.585 367.854 417.077 371.131 428.882 377.684C433.21 380.044 436.883 382.927 437.145 384.107C438.325 389.874 418.913 405.079 403.567 410.322C392.025 414.254 365.793 414.647 355.3 410.977C341.659 406.258 333.789 395.51 333.789 381.486C333.789 369.427 336.544 357.63 348.348 320.668C363.301 273.088 365.006 264.7 359.628 261.423C355.3 258.67 344.413 266.535 300.736 303.759C239.615 355.795 204.332 383.714 189.38 391.709C179.674 396.821 169.968 397.083 160.917 392.496C149.637 386.728 146.096 380.699 146.096 367.068C146.096 351.208 149.769 342.164 205.906 221.315C247.222 132.448 258.109 104.66 252.206 104.66C246.173 104.66 216.399 134.938 124.585 234.422C81.6953 280.822 62.021 301.531 34.6081 329.188L16.77 347.145L22.8035 361.3C29.6239 376.767 40.3792 394.986 51.528 410.059C61.234 423.036 89.1716 450.954 102.025 460.391C144.129 491.587 191.872 508.495 246.566 511.772C272.143 513.214 310.311 507.709 337.331 498.533C433.472 465.896 499.316 383.583 510.989 281.608C513.088 263.389 511.776 230.097 508.366 211.353C499.054 160.759 477.149 117.374 442.523 80.6738C422.324 59.1779 401.6 43.3181 375.236 29.1623L363.563 22.8708L364.35 28.769Z" fill="#DB0000"/>
</svg>
