<svg width="668" height="133" viewBox="0 0 668 133" fill="none" xmlns="http://www.w3.org/2000/svg">
<path d="M59.3135 0.32298C36.4516 2.7404 15.9065 17.4833 6.16211 38.4569C3.81118 43.5301 1.80097 49.9652 0.846966 55.447C0.47218 57.7623 -0.141105 64.7081 0.0292516 64.9464C0.199609 65.1167 16.3495 49.7269 35.5998 31.1025C48.1381 18.9473 61.6985 6.72404 67.7292 2.19563C68.9898 1.24228 70.012 0.357029 70.012 0.220836C70.012 -0.119646 62.857 -0.0515495 59.3135 0.32298Z" fill="white"/>
<path d="M94.6456 7.47315C94.9182 9.4139 94.4071 12.9549 93.4872 15.6788C91.5451 21.3648 84.2879 34.2691 70.1823 57.1495C63.1977 68.5215 59.7565 74.2757 57.9507 77.7486C55.9746 81.5279 56.3834 82.3792 59.3476 80.5746C62.4481 78.736 67.4226 74.514 79.0068 63.9591C98.4957 46.22 101.596 43.8366 106.162 42.8833C109.296 42.2363 113.419 43.394 115.395 45.4709C116.656 46.7988 117.031 47.9564 117.031 50.6462C117.031 54.9363 116.111 59.2945 110.216 83.1963C109.058 87.8609 108.036 92.4574 107.933 93.4108C107.695 95.5558 108.342 96.407 111.409 98.1094C112.533 98.7223 113.487 99.4713 113.555 99.7778C113.862 101.276 108.819 105.225 104.833 106.587C101.835 107.609 95.0204 107.711 92.2947 106.758C88.7513 105.532 86.707 102.74 86.707 99.0968C86.707 95.9644 87.4225 92.9 90.4889 83.2985C94.3731 70.939 94.816 68.7599 93.4191 67.9087C92.2947 67.1937 89.4668 69.2365 78.121 78.9062C62.2437 92.4234 53.0785 99.6756 49.1943 101.753C46.6731 103.08 44.1518 103.149 41.8009 101.957C38.8707 100.459 37.9508 98.8925 37.9508 95.3515C37.9508 91.2317 38.9048 88.8824 53.4874 57.4899C64.2198 34.4053 67.0478 27.187 65.5146 27.187C63.9473 27.187 56.2131 35.0522 32.3631 60.8947C21.2217 72.9478 16.111 78.3274 8.99007 85.5116L4.35636 90.1762L5.92365 93.8534C7.69536 97.8711 10.4892 102.604 13.3853 106.519C15.9066 109.89 23.1638 117.142 26.5028 119.594C37.4397 127.697 49.8417 132.09 64.0495 132.941C70.6934 133.315 80.6082 131.885 87.6269 129.502C112.601 121.024 129.705 99.6416 132.737 73.1521C133.283 68.4194 132.942 59.7712 132.056 54.9023C129.637 41.7597 123.947 30.4897 114.952 20.9562C109.705 15.3723 104.322 11.2525 97.4735 7.57529L94.4412 5.94098L94.6456 7.47315Z" fill="white"/>
<path d="M156.143 85.0548C154.508 85.0548 153.242 84.6314 152.345 83.7845C151.448 82.9376 151 81.7732 151 80.2911V49.327C151 47.845 151.448 46.6805 152.345 45.8336C153.242 44.9868 154.508 44.5633 156.143 44.5633C157.726 44.5633 158.992 44.9868 159.941 45.8336C160.891 46.6805 161.365 47.845 161.365 49.327V51.2325C162.579 49.1153 164.108 47.4745 165.954 46.31C167.801 45.1456 169.805 44.5633 171.968 44.5633C174.183 44.5633 176.188 45.172 177.981 46.3894C179.775 47.5539 181.12 49.1682 182.017 51.2325C185.762 46.7864 190.008 44.5633 194.756 44.5633C198.976 44.5633 202.273 46.0454 204.646 49.0095C207.02 51.9735 208.207 56.1021 208.207 61.3951V80.2911C208.207 81.7732 207.732 82.9376 206.783 83.7845C205.833 84.6314 204.567 85.0548 202.985 85.0548C201.349 85.0548 200.083 84.6314 199.187 83.7845C198.29 82.9376 197.842 81.7732 197.842 80.2911V60.7599C197.842 58.1664 197.367 56.2079 196.417 54.8847C195.521 53.5085 194.175 52.8204 192.382 52.8204C190.852 52.8204 189.507 53.2439 188.347 54.0907C187.186 54.9376 186.105 56.2873 185.103 58.1399V80.2911C185.103 81.7732 184.628 82.9376 183.678 83.7845C182.729 84.6314 181.463 85.0548 179.88 85.0548C178.245 85.0548 176.979 84.6314 176.082 83.7845C175.186 82.9376 174.737 81.7732 174.737 80.2911V62.4272C174.737 56.0227 172.917 52.8204 169.278 52.8204C166.798 52.8204 164.847 53.7996 163.423 55.758C162.051 57.7164 161.365 60.4159 161.365 63.8563V80.2911C161.365 81.7732 160.891 82.9376 159.941 83.7845C158.992 84.6314 157.726 85.0548 156.143 85.0548Z" fill="white"/>
<path d="M236.658 85.0548C232.121 85.0548 228.165 84.2344 224.789 82.5936C221.413 80.9527 218.802 78.6503 216.956 75.6862C215.162 72.6692 214.265 69.1493 214.265 65.1267C214.265 58.6163 216.138 53.5614 219.883 49.9622C223.681 46.363 229.009 44.5633 235.866 44.5633C240.086 44.5633 243.805 45.225 247.023 46.5482C250.293 47.8715 252.825 49.724 254.619 52.1059C256.465 54.4348 257.388 57.1078 257.388 60.1248C257.388 62.6654 256.571 64.6238 254.935 66C253.353 67.3762 251.085 68.0643 248.131 68.0643H224.314C224.314 71.0284 225.343 73.2779 227.4 74.8129C229.51 76.2949 232.596 77.0359 236.658 77.0359C240.93 77.0359 244.57 76.0832 247.577 74.1777C249.265 73.1191 250.583 72.5898 251.533 72.5898C252.43 72.5898 253.3 73.0132 254.144 73.8601C255.041 74.7599 255.489 75.7391 255.489 76.7977C255.489 78.0681 254.962 79.0737 253.907 79.8147C251.691 81.5085 249.107 82.8053 246.153 83.7051C243.199 84.6049 240.034 85.0548 236.658 85.0548ZM244.966 60.7599C245.862 60.7599 246.495 60.6011 246.865 60.2836C247.234 59.913 247.419 59.3308 247.419 58.5369C247.419 56.6843 246.364 55.2287 244.254 54.1701C242.196 53.1115 239.401 52.5822 235.866 52.5822C232.332 52.5822 229.536 53.3233 227.479 54.8053C225.475 56.2873 224.472 58.2722 224.472 60.7599H244.966Z" fill="white"/>
<path d="M280.672 85.0548C276.557 85.0548 272.891 84.2609 269.673 82.673C266.508 81.0321 264.029 78.6767 262.236 75.6068C260.442 72.5369 259.546 68.9376 259.546 64.8091C259.546 60.6805 260.39 57.1078 262.078 54.0907C263.818 51.0208 266.297 48.6654 269.515 47.0246C272.733 45.3837 276.531 44.5633 280.909 44.5633C284.127 44.5633 286.843 45.0926 289.059 46.1512C291.274 47.1569 293.358 48.6919 295.31 50.7561L295.389 28.7637C295.389 27.2817 295.864 26.1172 296.813 25.2703C297.763 24.4234 299.029 24 300.611 24C302.194 24 303.433 24.4234 304.33 25.2703C305.279 26.0643 305.754 27.2287 305.754 28.7637V80.2911C305.754 81.8261 305.279 83.017 304.33 83.8639C303.433 84.6578 302.194 85.0548 300.611 85.0548C299.029 85.0548 297.763 84.6314 296.813 83.7845C295.864 82.9376 295.389 81.7732 295.389 80.2911V78.7032C291.855 82.9376 286.949 85.0548 280.672 85.0548ZM282.254 76.7977C286.369 76.7977 289.586 75.7391 291.907 73.6219C294.228 71.5047 295.389 68.5671 295.389 64.8091C295.389 61.051 294.228 58.1134 291.907 55.9962C289.586 53.879 286.369 52.8204 282.254 52.8204C278.404 52.8204 275.397 53.879 273.234 55.9962C271.071 58.1134 269.99 61.051 269.99 64.8091C269.99 68.5671 271.071 71.5047 273.234 73.6219C275.397 75.7391 278.404 76.7977 282.254 76.7977Z" fill="white"/>
<path d="M319.523 39.6408C317.571 39.6408 315.989 39.1115 314.776 38.0529C313.615 36.9414 313.035 35.5123 313.035 33.7656C313.035 32.0189 313.615 30.6163 314.776 29.5577C315.989 28.4461 317.571 27.8904 319.523 27.8904C321.475 27.8904 323.057 28.4461 324.27 29.5577C325.536 30.6163 326.169 32.0189 326.169 33.7656C326.169 35.5123 325.536 36.9414 324.27 38.0529C323.057 39.1115 321.475 39.6408 319.523 39.6408ZM319.602 85.0548C317.967 85.0548 316.701 84.6314 315.804 83.7845C314.907 82.9376 314.459 81.7732 314.459 80.2911V49.327C314.459 47.845 314.907 46.6805 315.804 45.8336C316.701 44.9868 317.967 44.5633 319.602 44.5633C321.185 44.5633 322.451 44.9868 323.4 45.8336C324.35 46.6805 324.824 47.845 324.824 49.327V80.2911C324.824 81.7732 324.35 82.9376 323.4 83.7845C322.451 84.6314 321.185 85.0548 319.602 85.0548Z" fill="white"/>
<path d="M349.259 85.0548C345.988 85.0548 343.087 84.4991 340.555 83.3875C338.076 82.276 336.124 80.741 334.7 78.7826C333.329 76.7713 332.643 74.4688 332.643 71.8752C332.643 67.9584 334.252 64.8355 337.469 62.5066C340.74 60.1777 345.144 59.0132 350.683 59.0132C355.483 59.0132 359.334 60.0454 362.235 62.1096V60.2042C362.235 57.7164 361.47 55.811 359.941 54.4877C358.411 53.1645 356.195 52.5028 353.294 52.5028C348.969 52.5028 345.25 53.4291 342.138 55.2817C340.819 56.0227 339.685 56.3932 338.735 56.3932C337.575 56.3932 336.546 55.8639 335.65 54.8053C335.069 54.0643 334.779 53.2968 334.779 52.5028C334.779 51.1796 335.465 50.0151 336.836 49.0095C338.735 47.6333 341.135 46.5482 344.037 45.7543C346.938 44.9603 349.997 44.5633 353.215 44.5633C359.334 44.5633 364.134 45.966 367.616 48.7713C371.15 51.5236 372.917 55.3346 372.917 60.2042V80.6087C372.917 81.9849 372.442 83.0699 371.493 83.8639C370.596 84.6578 369.356 85.0548 367.774 85.0548C366.139 85.0548 364.873 84.6843 363.976 83.9433C363.079 83.2023 362.631 82.1437 362.631 80.7675V79.8941C359.624 83.3346 355.167 85.0548 349.259 85.0548ZM351.712 77.7505C355.035 77.7505 357.62 77.2476 359.466 76.242C361.365 75.1834 362.314 73.7278 362.314 71.8752C362.314 70.1285 361.365 68.7259 359.466 67.6673C357.567 66.6087 355.035 66.0794 351.87 66.0794C349.022 66.0794 346.806 66.5822 345.224 67.5879C343.694 68.5936 342.929 70.0227 342.929 71.8752C342.929 73.7278 343.694 75.1834 345.224 76.242C346.753 77.2476 348.916 77.7505 351.712 77.7505Z" fill="white"/>
<path d="M420.195 85.0548C411.702 85.0548 405.452 82.5936 401.443 77.6711C400.599 76.5595 400.177 75.5539 400.177 74.6541C400.177 73.3837 400.836 72.2722 402.155 71.3195C403.051 70.7372 403.922 70.4461 404.766 70.4461C405.926 70.4461 407.008 70.949 408.01 71.9546C409.803 73.7543 411.544 75.051 413.232 75.845C414.973 76.586 417.109 76.9565 419.641 76.9565C421.804 76.9565 423.624 76.6654 425.101 76.0832C426.578 75.5009 427.316 74.7864 427.316 73.9395C427.316 72.8809 426.71 71.9811 425.496 71.2401C424.283 70.4991 421.83 69.5463 418.138 68.3819C412.335 66.5822 408.221 64.7032 405.794 62.7448C403.368 60.7335 402.155 58.2457 402.155 55.2817C402.155 51.9471 403.579 49.327 406.427 47.4216C409.276 45.5161 413.206 44.5633 418.217 44.5633C422.068 44.5633 425.549 45.1456 428.661 46.31C431.774 47.4745 434.042 49.0359 435.466 50.9943C436.152 51.8941 436.495 52.794 436.495 53.6938C436.495 54.9641 435.862 55.9962 434.596 56.7902C433.699 57.3724 432.776 57.6635 431.826 57.6635C430.297 57.6635 428.899 57.0284 427.633 55.758C426.578 54.7524 425.206 53.9849 423.518 53.4556C421.883 52.9263 420.09 52.6616 418.138 52.6616C414.445 52.6616 412.599 53.535 412.599 55.2817C412.599 55.9698 412.889 56.5785 413.47 57.1078C414.05 57.6371 415.078 58.1928 416.555 58.775C418.085 59.3573 420.459 60.1512 423.677 61.1569C428.846 62.7448 432.459 64.4915 434.517 66.397C436.627 68.3025 437.682 70.8166 437.682 73.9395C437.682 77.2741 436.152 79.9735 433.092 82.0378C430.033 84.0492 425.734 85.0548 420.195 85.0548Z" fill="white"/>
<path d="M449.305 108C447.67 108 446.404 107.577 445.507 106.73C444.61 105.883 444.162 104.718 444.162 103.236V49.327C444.162 47.845 444.61 46.6805 445.507 45.8336C446.404 44.9868 447.67 44.5633 449.305 44.5633C450.887 44.5633 452.153 44.9868 453.103 45.8336C454.052 46.6805 454.527 47.845 454.527 49.327V50.9149C456.795 48.6919 459.143 47.0775 461.569 46.0718C464.048 45.0662 466.844 44.5633 469.956 44.5633C474.071 44.5633 477.658 45.3837 480.717 47.0246C483.829 48.6654 486.203 51.0208 487.838 54.0907C489.526 57.1078 490.37 60.6805 490.37 64.8091C490.37 68.8847 489.526 72.4575 487.838 75.5274C486.15 78.5974 483.75 80.9527 480.638 82.5936C477.526 84.2344 473.86 85.0548 469.64 85.0548C466.475 85.0548 463.705 84.5785 461.332 83.6257C458.958 82.62 456.716 81.0321 454.606 78.862L454.527 103.236C454.527 104.718 454.052 105.883 453.103 106.73C452.153 107.577 450.887 108 449.305 108ZM467.503 76.7977C471.407 76.7977 474.44 75.7656 476.603 73.7013C478.818 71.5841 479.926 68.62 479.926 64.8091C479.926 60.9981 478.818 58.0605 476.603 55.9962C474.44 53.879 471.407 52.8204 467.503 52.8204C463.442 52.8204 460.25 53.9055 457.929 56.0756C455.661 58.1928 454.527 61.104 454.527 64.8091C454.527 68.5142 455.661 71.4518 457.929 73.6219C460.25 75.7391 463.442 76.7977 467.503 76.7977Z" fill="white"/>
<path d="M502.003 85.0548C500.368 85.0548 499.102 84.6314 498.205 83.7845C497.308 82.9376 496.86 81.7732 496.86 80.2911V28.7637C496.86 27.2817 497.308 26.1172 498.205 25.2703C499.102 24.4234 500.368 24 502.003 24C503.585 24 504.851 24.4234 505.801 25.2703C506.75 26.1172 507.225 27.2817 507.225 28.7637V51.6295C509.177 49.1947 511.366 47.4216 513.792 46.31C516.219 45.1456 519.041 44.5633 522.259 44.5633C527.323 44.5633 531.305 46.1777 534.206 49.4064C537.16 52.5822 538.637 56.9225 538.637 62.4272V80.2911C538.637 81.7732 538.163 82.9376 537.213 83.7845C536.264 84.6314 534.998 85.0548 533.415 85.0548C531.78 85.0548 530.514 84.6314 529.617 83.7845C528.72 82.9376 528.272 81.7732 528.272 80.2911V62.4272C528.272 59.4102 527.534 57.0548 526.057 55.3611C524.58 53.6673 522.522 52.8204 519.885 52.8204C515.876 52.8204 512.764 54.0113 510.548 56.3932C508.333 58.7221 507.225 62.0038 507.225 66.2382V80.2911C507.225 81.7732 506.75 82.9376 505.801 83.7845C504.851 84.6314 503.585 85.0548 502.003 85.0548Z" fill="white"/>
<path d="M567.141 85.0548C562.604 85.0548 558.648 84.2344 555.272 82.5936C551.896 80.9527 549.285 78.6503 547.439 75.6862C545.645 72.6692 544.748 69.1493 544.748 65.1267C544.748 58.6163 546.621 53.5614 550.366 49.9622C554.164 46.363 559.492 44.5633 566.349 44.5633C570.569 44.5633 574.288 45.225 577.506 46.5482C580.776 47.8715 583.308 49.724 585.102 52.1059C586.948 54.4348 587.871 57.1078 587.871 60.1248C587.871 62.6654 587.054 64.6238 585.418 66C583.836 67.3762 581.568 68.0643 578.614 68.0643H554.797C554.797 71.0284 555.826 73.2779 557.883 74.8129C559.993 76.2949 563.079 77.0359 567.141 77.0359C571.413 77.0359 575.053 76.0832 578.06 74.1777C579.748 73.1191 581.067 72.5898 582.016 72.5898C582.913 72.5898 583.783 73.0132 584.627 73.8601C585.524 74.7599 585.972 75.7391 585.972 76.7977C585.972 78.0681 585.445 79.0737 584.39 79.8147C582.174 81.5085 579.59 82.8053 576.636 83.7051C573.682 84.6049 570.517 85.0548 567.141 85.0548ZM575.449 60.7599C576.345 60.7599 576.978 60.6011 577.348 60.2836C577.717 59.913 577.902 59.3308 577.902 58.5369C577.902 56.6843 576.847 55.2287 574.737 54.1701C572.679 53.1115 569.884 52.5822 566.349 52.5822C562.815 52.5822 560.019 53.3233 557.962 54.8053C555.958 56.2873 554.956 58.2722 554.956 60.7599H575.449Z" fill="white"/>
<path d="M599.517 85.0548C597.882 85.0548 596.616 84.6314 595.719 83.7845C594.823 82.9376 594.374 81.7732 594.374 80.2911V49.327C594.374 47.7921 594.796 46.6276 595.64 45.8336C596.537 44.9868 597.777 44.5633 599.359 44.5633C600.942 44.5633 602.181 44.9868 603.078 45.8336C603.975 46.6805 604.423 47.845 604.423 49.327V51.9471C606.058 49.8299 607.957 48.2155 610.12 47.104C612.335 45.9395 614.709 45.3573 617.241 45.3573H618.982C620.67 45.3573 621.962 45.7278 622.859 46.4688C623.808 47.1569 624.283 48.1626 624.283 49.4858C624.283 50.8091 623.808 51.8412 622.859 52.5822C621.962 53.2703 620.67 53.6144 618.982 53.6144H616.292C612.757 53.6144 609.935 54.7524 607.825 57.0284C605.768 59.2514 604.74 62.3214 604.74 66.2382V80.2911C604.74 81.7732 604.265 82.9376 603.315 83.7845C602.366 84.6314 601.1 85.0548 599.517 85.0548Z" fill="white"/>
<path d="M647.269 85.0548C642.733 85.0548 638.777 84.2344 635.401 82.5936C632.025 80.9527 629.414 78.6503 627.568 75.6862C625.774 72.6692 624.877 69.1493 624.877 65.1267C624.877 58.6163 626.75 53.5614 630.495 49.9622C634.293 46.363 639.621 44.5633 646.478 44.5633C650.698 44.5633 654.417 45.225 657.635 46.5482C660.905 47.8715 663.437 49.724 665.231 52.1059C667.077 54.4348 668 57.1078 668 60.1248C668 62.6654 667.182 64.6238 665.547 66C663.965 67.3762 661.696 68.0643 658.742 68.0643H634.926C634.926 71.0284 635.955 73.2779 638.012 74.8129C640.122 76.2949 643.208 77.0359 647.269 77.0359C651.542 77.0359 655.182 76.0832 658.189 74.1777C659.877 73.1191 661.195 72.5898 662.145 72.5898C663.042 72.5898 663.912 73.0132 664.756 73.8601C665.653 74.7599 666.101 75.7391 666.101 76.7977C666.101 78.0681 665.574 79.0737 664.519 79.8147C662.303 81.5085 659.718 82.8053 656.764 83.7051C653.81 84.6049 650.645 85.0548 647.269 85.0548ZM655.578 60.7599C656.474 60.7599 657.107 60.6011 657.476 60.2836C657.846 59.913 658.03 59.3308 658.03 58.5369C658.03 56.6843 656.975 55.2287 654.865 54.1701C652.808 53.1115 650.012 52.5822 646.478 52.5822C642.944 52.5822 640.148 53.3233 638.091 54.8053C636.087 56.2873 635.084 58.2722 635.084 60.7599H655.578Z" fill="white"/>
</svg>
