<?xml version="1.0" encoding="utf-8"?>
<!-- Generator: Adobe Illustrator 24.0.3, SVG Export Plug-In . SVG Version: 6.00 Build 0)  -->
<svg version="1.1" id="Layer_1" xmlns="http://www.w3.org/2000/svg" xmlns:xlink="http://www.w3.org/1999/xlink" x="0px" y="0px"
	 viewBox="0 0 110 130" style="enable-background:new 0 0 110 130;" xml:space="preserve">
<style type="text/css">
	.st0{fill:none;}
	.st1{fill:#121212;}
</style>
<title>No search result found copy</title>
<g id="Layer_2_1_">
	<path class="st0" d="M95.9,112c-0.9,0.9-1.9,1.8-2.9,2.6l7.8,7.8c0.8,0.7,2,0.7,2.8,0l0,0c0.7-0.8,0.7-2,0-2.8L95.9,112z"/>
	<path class="st1" d="M5.7,53.6l-4.8,1.8c-0.4,0.1-0.6,0.6-0.5,1c0,0,0,0,0,0c0.1,0.3,0.4,0.5,0.7,0.5c0.1,0,0.2,0,0.3,0l4.8-1.8
		c0.4-0.1,0.6-0.6,0.4-1C6.5,53.7,6.1,53.5,5.7,53.6L5.7,53.6z"/>
	<path class="st1" d="M96.8,1.3l-3,3.7c-0.3,0.3-0.2,0.8,0.1,1c0.1,0.1,0.3,0.2,0.5,0.2c0.2,0,0.4-0.1,0.6-0.3l3-3.7
		c0.2-0.3,0.2-0.7-0.1-1C97.6,1,97.1,1,96.8,1.3z"/>
	<path class="st1" d="M18.1,3.1L17,0.5c-0.2-0.4-0.6-0.6-1-0.4c-0.4,0.2-0.6,0.6-0.4,1l1.1,2.7c0.1,0.3,0.4,0.5,0.7,0.5
		c0.1,0,0.2,0,0.3,0C18.1,3.9,18.3,3.5,18.1,3.1C18.1,3.1,18.1,3.1,18.1,3.1z"/>
	<path class="st1" d="M109,68.5l-4.6-1.2c-0.4-0.1-0.8,0.1-0.9,0.5c-0.1,0.4,0.1,0.8,0.5,0.9c0,0,0,0,0,0l4.6,1.2c0.1,0,0.1,0,0.2,0
		c0.4,0,0.8-0.3,0.8-0.7C109.6,68.9,109.4,68.6,109,68.5L109,68.5z"/>
	<path class="st1" d="M17.4,119.6l-3.1,3c-0.3,0.3-0.3,0.7,0,1c0.1,0.2,0.3,0.2,0.5,0.2c0.2,0,0.4-0.1,0.5-0.2l3.1-3
		c0.3-0.3,0.2-0.8-0.1-1C18.1,119.4,17.7,119.4,17.4,119.6L17.4,119.6z"/>
	<path class="st1" d="M85.8,122.6c-0.1-0.4-0.5-0.6-0.9-0.5c0,0,0,0,0,0c-0.4,0.1-0.6,0.5-0.5,0.9l1.8,6.4c0.1,0.3,0.4,0.5,0.7,0.5
		c0.1,0,0.1,0,0.2,0c0.4-0.1,0.6-0.5,0.5-0.9L85.8,122.6z"/>
	<path class="st1" d="M40.5,7.8h32.8v14.9c0,0.4,0.3,0.7,0.7,0.7h15.6c0.3,0,0.6-0.2,0.7-0.4c0.1-0.3,0.1-0.6-0.1-0.8
		C75.1,6.3,74.4,6.3,74,6.3h-0.1h-0.1H40.5c-0.4,0-0.7,0.3-0.7,0.7l0,0C39.7,7.4,40,7.8,40.5,7.8C40.5,7.8,40.5,7.8,40.5,7.8z
		 M74.7,21.9V8.5c2.5,2.3,8.6,8.7,13.1,13.4H74.7z"/>
	<path class="st1" d="M90.5,24.5c0-0.4-0.3-0.7-0.7-0.7c-0.4,0-0.7,0.3-0.7,0.7v45l-7.7-6.2c-0.3-0.2-0.7-0.2-0.9,0L71.9,70
		l-8.4-6.8c-0.3-0.2-0.7-0.2-0.9,0L54,70l-8.4-6.8c-0.3-0.2-0.7-0.2-0.9,0L36.2,70l-8.5-6.8c-0.3-0.2-0.7-0.2-0.9,0l-6.3,5.1
		l-1.4,1.1V12.8c0-2.7,2.2-5,5-5h12.4c0.4,0,0.7-0.3,0.7-0.7l0,0c0-0.4-0.3-0.7-0.7-0.7H24.1c-3.6,0-6.5,2.9-6.5,6.5v58
		c0,0,0,0.1,0,0.1c0,0.2,0,0.4,0.1,0.6c0.3,0.3,0.7,0.3,1,0.1l0.7-0.6l7.8-6.3l7.7,6.3l0.7,0.6c0.3,0.2,0.7,0.2,0.9,0l0.7-0.6
		l7.7-6.3l7.8,6.3l0.7,0.6c0.3,0.2,0.7,0.2,0.9,0l0.7-0.6l7.7-6.3l7.7,6.3l0.7,0.6c0.3,0.2,0.7,0.2,0.9,0L73,71l7.7-6.3l7.7,6.3
		l0.7,0.6c0.1,0.1,0.3,0.2,0.5,0.2c0.4,0,0.7-0.3,0.7-0.7c0,0,0-0.1,0-0.1c0,0,0-0.1,0-0.1L90.5,24.5z"/>
	<path class="st1" d="M58,105.5H32.9c-0.4,0-0.7,0.3-0.7,0.7l0,0c0,0.4,0.3,0.7,0.7,0.7h25.9C58.5,106.5,58.2,106,58,105.5z"/>
	<path class="st1" d="M28.9,105.5h-4.8c-2.7,0-5-2.2-5-5V81.2l0,0l0,0l0.4-0.3l7.8-6.3l7.7,6.3l0.4,0.4l0.3,0.2
		c0.3,0.2,0.7,0.2,0.9,0l0.3-0.2l0.4-0.4l7.7-6.3l7.8,6.3l0.4,0.4l0.3,0.2c0.3,0.2,0.7,0.2,0.9,0l0.3-0.2l0.5-0.4l7.7-6.3l2.9,2.3
		c0.4-0.3,0.9-0.6,1.3-0.9l-3.7-3c-0.3-0.2-0.7-0.2-0.9,0L54,79.9l-8.5-6.8c-0.3-0.2-0.7-0.2-0.9,0l-8.5,6.8l-8.5-6.8
		c-0.3-0.2-0.7-0.2-0.9,0l-8.9,7.2c-0.2,0.2-0.3,0.5-0.2,0.8c0,0.1,0,0.1,0,0.2v19.3c0,3.6,2.9,6.5,6.5,6.5h4.8
		c0.4,0,0.7-0.3,0.7-0.7l0,0C29.6,105.8,29.3,105.5,28.9,105.5C28.9,105.5,28.9,105.5,28.9,105.5z"/>
	<path class="st1" d="M48.4,93H31.6c-0.4,0-0.7,0.3-0.7,0.7c0,0.4,0.3,0.7,0.7,0.7h16.9c0.4,0,0.7-0.3,0.7-0.7
		C49.2,93.3,48.9,93,48.4,93z"/>
	<path class="st1" d="M56.1,93h-3.7c-0.4,0-0.7,0.3-0.7,0.7c0,0.4,0.3,0.7,0.7,0.7H56C56,94,56.1,93.5,56.1,93z"/>
	<path class="st1" d="M96.9,110.9l-2.2-2.3c7.1-8.6,5.8-21.4-2.8-28.4c-8.6-7.1-21.4-5.8-28.4,2.8s-5.8,21.4,2.8,28.4
		c6.6,5.4,15.9,6.1,23.2,1.7l2.4,2.4l7.9,7.9c1.3,1.3,3.5,1.3,4.9,0c0.6-0.6,1-1.5,1-2.4c0-0.9-0.4-1.8-1-2.4L96.9,110.9z M60.7,96
		c0-10.2,8.3-18.5,18.5-18.5c10.2,0,18.5,8.3,18.5,18.5s-8.3,18.5-18.5,18.5l0,0C68.9,114.5,60.7,106.2,60.7,96L60.7,96z M93,114.6
		l-2.3-2.4c1.1-0.8,2.1-1.6,3-2.6L96,112l7.6,7.6c0.7,0.8,0.7,2,0,2.8l0,0c-0.8,0.7-2,0.7-2.8,0"/>
	<path class="st1" d="M80.4,105.3c0.4-0.4,0.6-0.9,0.6-1.4c0-1.1-0.8-2-1.9-2c0,0-0.1,0-0.1,0c-0.5,0-1,0.2-1.4,0.6
		c-0.4,0.4-0.6,0.9-0.6,1.4c0,0.5,0.2,1.1,0.6,1.4c0.4,0.3,0.9,0.5,1.4,0.5C79.5,105.9,80,105.7,80.4,105.3z"/>
	<path class="st1" d="M76,91.6c0.2-0.8,0.6-1.5,1.2-2.1c0.6-0.5,1.3-0.8,2.1-0.7c0.7,0,1.4,0.2,2,0.7c0.5,0.4,0.8,1.1,0.8,1.8
		c0,0.3-0.1,0.7-0.3,1c-0.2,0.3-0.4,0.6-0.6,0.8c-0.2,0.2-0.7,0.6-1.2,1.1c-0.5,0.5-1,0.9-1.5,1.4c-0.8,0.9-1.3,2.1-1.2,3.3
		c0,0.5,0.1,1,0.5,1.3c0.3,0.3,0.7,0.4,1.1,0.4c0.8,0.1,1.5-0.6,1.6-1.4c0,0,0,0,0,0c0.1-0.4,0.2-0.7,0.2-0.9
		c0.1-0.2,0.1-0.4,0.2-0.5c0.1-0.2,0.2-0.4,0.4-0.6c0.2-0.3,0.5-0.5,0.7-0.7c1.1-1,1.8-1.7,2.2-2.1c0.4-0.4,0.8-0.9,1.1-1.4
		c0.3-0.6,0.5-1.3,0.4-2c0-0.9-0.3-1.8-0.8-2.6c-0.6-0.8-1.3-1.5-2.2-1.9c-1.1-0.5-2.2-0.7-3.4-0.7c-1.2,0-2.5,0.3-3.6,0.8
		c-0.9,0.5-1.8,1.2-2.3,2.1c-0.5,0.7-0.8,1.6-0.8,2.5c0,0.4,0.2,0.8,0.5,1.1c0.3,0.3,0.8,0.5,1.2,0.5C75.2,93.1,75.7,92.6,76,91.6z"
		/>
	<path class="st1" d="M60.4,21.5L54,27.9l-6.4-6.4c-0.3-0.3-0.8-0.3-1.1,0c-0.3,0.3-0.3,0.7,0,1l6.5,6.4l-6.4,6.4
		c-0.3,0.3-0.3,0.8,0,1.1c0.1,0.1,0.3,0.2,0.5,0.2c0.2,0,0.4-0.1,0.5-0.2L52,32l2-2l6.4,6.4c0.1,0.1,0.3,0.2,0.5,0.2
		c0.2,0,0.4-0.1,0.5-0.2c0.3-0.3,0.3-0.7,0-1c0,0,0,0,0,0l-6.4-6.4l6.4-6.4c0.3-0.3,0.3-0.7,0-1c0,0,0,0,0,0
		c-0.1-0.1-0.1-0.1-0.2-0.1C61,21.2,60.7,21.3,60.4,21.5z"/>
	<path class="st1" d="M65.3,50.8h11.2c0.4,0,0.7-0.3,0.7-0.7c0-0.4-0.3-0.7-0.7-0.7H65.3c-0.4,0-0.7,0.3-0.7,0.7
		C64.6,50.5,64.9,50.8,65.3,50.8L65.3,50.8z"/>
	<path class="st1" d="M30.8,50.1c0,0.4,0.3,0.7,0.7,0.7h29.8c0.4,0,0.7-0.3,0.7-0.7c0-0.4-0.3-0.7-0.7-0.7H31.6
		C31.2,49.3,30.8,49.7,30.8,50.1z"/>
</g>
</svg>
